<?xml version="1.0" encoding="UTF-8" standalone="no"?>
<!DOCTYPE svg PUBLIC "-//W3C//DTD SVG 1.1//EN" "http://www.w3.org/Graphics/SVG/1.1/DTD/svg11.dtd">
<svg version="1.1" xmlns="http://www.w3.org/2000/svg" xmlns:xlink="http://www.w3.org/1999/xlink" preserveAspectRatio="xMidYMid meet" viewBox="0 0 640 640" width="640" height="640"><defs><path d="M633.88 347.33C633.88 506.45 504.69 635.64 345.57 635.64C186.44 635.64 57.26 506.45 57.26 347.33C57.26 188.21 186.44 59.02 345.57 59.02C504.69 59.02 633.88 188.21 633.88 347.33Z" id="a2krr88rP7"></path><path d="M217.19 565.16L399.14 585.87L386.48 505.52L107.45 425.18L217.19 565.16Z" id="a2iO9mI6My"></path><path d="M399.14 585.87L570.86 481.26L529.7 144.52L474.74 174.36L386.31 505.52L399.14 585.87Z" id="ccTqssYYj"></path><path d="M202.63 18.78C376.59 85.25 485.31 126.78 528.8 143.4C529.93 143.83 530.02 145.4 528.95 145.97C521.72 149.75 503.65 159.22 474.74 174.36L202.63 18.78Z" id="a2jZpc8lvV"></path><path d="M474.74 174.36L436.05 354.46L386.31 505.52L107.45 425.18L202.63 18.78L474.74 174.36Z" id="cxTCMv3W4"></path></defs><g><g><g><use xlink:href="#a2krr88rP7" opacity="1" fill="#ffffff" fill-opacity="1"></use><g><use xlink:href="#a2krr88rP7" opacity="1" fill-opacity="0" stroke="#687af8" stroke-width="0" stroke-opacity="1"></use></g></g><g><use xlink:href="#a2iO9mI6My" opacity="1" fill="#132a4c" fill-opacity="1"></use><g><use xlink:href="#a2iO9mI6My" opacity="1" fill-opacity="0" stroke="#000000" stroke-width="0" stroke-opacity="1"></use></g></g><g><use xlink:href="#ccTqssYYj" opacity="1" fill="#1b3f75" fill-opacity="1"></use><g><use xlink:href="#ccTqssYYj" opacity="1" fill-opacity="0" stroke="#000000" stroke-width="0" stroke-opacity="1"></use></g></g><g><use xlink:href="#a2jZpc8lvV" opacity="1" fill="#187dba" fill-opacity="1"></use><g><use xlink:href="#a2jZpc8lvV" opacity="1" fill-opacity="0" stroke="#000000" stroke-width="0" stroke-opacity="1"></use></g></g><g><use xlink:href="#cxTCMv3W4" opacity="1" fill="#0692d6" fill-opacity="1"></use><g><use xlink:href="#cxTCMv3W4" opacity="1" fill-opacity="0" stroke="#000000" stroke-width="0" stroke-opacity="1"></use></g></g></g></g></svg>